<svg width="50" height="50" viewBox="0 0 50 50" fill="none" xmlns="http://www.w3.org/2000/svg">
<path d="M26.7334 25.9334L24.2667 28.4001C23.7467 28.9201 22.9201 28.9201 22.3867 28.4134C22.2401 28.2667 22.0934 28.1334 21.9467 27.9867C20.5734 26.6001 19.3334 25.1467 18.2267 23.6267C17.1334 22.1067 16.2534 20.5867 15.6134 19.0801C14.9867 17.5601 14.6667 16.1067 14.6667 14.7201C14.6667 13.8134 14.8267 12.9467 15.1467 12.1467C15.4667 11.3334 15.9734 10.5867 16.6801 9.92008C17.5334 9.08008 18.4667 8.66675 19.4534 8.66675C19.8267 8.66675 20.2001 8.74675 20.5334 8.90675C20.8801 9.06675 21.1867 9.30675 21.4267 9.65341L24.5201 14.0134C24.7601 14.3467 24.9334 14.6534 25.0534 14.9467C25.1734 15.2267 25.2401 15.5067 25.2401 15.7601C25.2401 16.0801 25.1467 16.4001 24.9601 16.7067C24.7867 17.0134 24.5334 17.3334 24.2134 17.6534L23.2001 18.7067C23.0534 18.8534 22.9867 19.0267 22.9867 19.2401C22.9867 19.3467 23.0001 19.4401 23.0267 19.5467C23.0667 19.6534 23.1067 19.7334 23.1334 19.8134C23.3734 20.2534 23.7867 20.8267 24.3734 21.5201C24.9734 22.2134 25.6134 22.9201 26.3067 23.6267C26.4401 23.7601 26.5867 23.8934 26.7201 24.0267C27.2534 24.5467 27.2667 25.4001 26.7334 25.9334Z" fill="#21409A"/>
<path d="M41.2934 30.44C41.2934 30.8133 41.2267 31.2 41.0934 31.5733C41.0534 31.68 41.0134 31.7866 40.96 31.8933C40.7334 32.3733 40.44 32.8266 40.0534 33.2533C39.4 33.9733 38.68 34.4933 37.8667 34.8266C37.8534 34.8266 37.8401 34.84 37.8267 34.84C37.0401 35.16 36.1867 35.3333 35.2667 35.3333C33.9067 35.3333 32.4534 35.0133 30.92 34.36C29.3867 33.7066 27.8534 32.8266 26.3334 31.72C25.8134 31.3333 19.6125 26.8133 16.5 21L23 19.5C25.5 23.5 29.8667 26.6666 30.1467 26.8133C30.2134 26.84 30.2934 26.88 30.3867 26.92C30.4934 26.96 30.6 26.9733 30.72 26.9733C30.9467 26.9733 31.12 26.8933 31.2667 26.7466L32.28 25.7466C32.6134 25.4133 32.9334 25.16 33.2401 25C33.5467 24.8133 33.8534 24.72 34.1867 24.72C34.44 24.72 34.7067 24.7733 35 24.8933C35.2934 25.0133 35.6001 25.1866 35.9334 25.4133L40.3467 28.5466C40.6934 28.7866 40.9334 29.0666 41.08 29.4C41.2134 29.7333 41.2934 30.0666 41.2934 30.44Z" fill="#21409A"/>
</svg>
