<svg width="32" height="32" viewBox="0 0 32 32" fill="none" xmlns="http://www.w3.org/2000/svg">
<path d="M21.3334 5.66675C21.3334 7.32008 19.9867 8.66675 18.3334 8.66675H13.6667C12.8401 8.66675 12.0934 8.33342 11.5467 7.78675C11.0001 7.24008 10.6667 6.49341 10.6667 5.66675C10.6667 4.01341 12.0134 2.66675 13.6667 2.66675H18.3334C19.1601 2.66675 19.9067 3.00008 20.4534 3.54675C21.0001 4.09341 21.3334 4.84008 21.3334 5.66675Z" fill="#21409A"/>
<path d="M25.1066 6.70662C24.7999 6.45328 24.4533 6.25328 24.0799 6.10662C23.6933 5.95995 23.3066 6.26662 23.2266 6.66662C22.7733 8.94662 20.7599 10.6666 18.3333 10.6666H13.6666C12.3333 10.6666 11.0799 10.1466 10.1333 9.19995C9.43992 8.50662 8.95992 7.62662 8.77325 6.67995C8.69325 6.27995 8.29325 5.95995 7.90659 6.11995C6.35992 6.74662 5.33325 8.15995 5.33325 11V23.9999C5.33325 27.9999 7.71992 29.3333 10.6666 29.3333H21.3333C24.2799 29.3333 26.6666 27.9999 26.6666 23.9999V11C26.6666 8.82662 26.0666 7.49328 25.1066 6.70662ZM10.6666 16.3333H15.9999C16.5466 16.3333 16.9999 16.7866 16.9999 17.3333C16.9999 17.8799 16.5466 18.3333 15.9999 18.3333H10.6666C10.1199 18.3333 9.66659 17.8799 9.66659 17.3333C9.66659 16.7866 10.1199 16.3333 10.6666 16.3333ZM21.3333 23.6666H10.6666C10.1199 23.6666 9.66659 23.2133 9.66659 22.6666C9.66659 22.1199 10.1199 21.6666 10.6666 21.6666H21.3333C21.8799 21.6666 22.3333 22.1199 22.3333 22.6666C22.3333 23.2133 21.8799 23.6666 21.3333 23.6666Z" fill="#21409A"/>
</svg>
